# xmcd
#
# Track frame offsets:
#	150
#	4710
#	13610
#	30610
#	31759
#	45520
#	60809
#	62915
#	82134
#	95771
#	110839
#	113337
#	131959
#	159543
#	160687
#	174622
#	193195
#	195497
#	206113
#	228529
#	234272
#	258900
#	278084
#	284192
#	292876
#	322995
#
# Disc length: 4365 seconds
#
# Revision: 0
# Processed by: cddbd v1.5.2PL0 Copyright (c) Steve Scherf et al.
# Submitted via: dBpowerAMP V4.0
#
DISCID=6b110b1a
DTITLE=Various Artist - Via campesina
DYEAR=2006
DGENRE=Misc
TTITLE0=Bamako 2006 - Ibrahima Coulibaly
TTITLE1=Metimery - Feo-Gasy
TTITLE2=Desaparecido - Manu Chao
TTITLE3=Hong-Kong 2005 - Down Down WTO
TTITLE4=Bandolita - Guafa trio
TTITLE5=Um pincelada - Cesaria Evora
TTITLE6=Hong-kong 2005 - Alberto Gomez
TTITLE7=Hop hop hop - Goran Bregovic
TTITLE8=Murshid rong mohole shadai joholok dai - Anado Gopal Das Baul
TTITLE9=400 miles - Bethany and Rufus
TTITLE10=Hong-kong 2005 - Jose Bove
TTITLE11=Plus rien ne m'etonne - Tiken Jah Fakoly
TTITLE12=Sogodounou - Nahawa Doumbia
TTITLE13=Hong-kong 2005 - Down Down WTO
TTITLE14=Frevo are na China - Celso Machado and Qiu Xia He
TTITLE15=Khiyanal Mariha - Samir Joubran
TTITLE16=Paris 2004 - Evo Morales
TTITLE17=Phatitan lullaby - Luzmila Carpio
TTITLE18=Djindji Rindji Bubamara - Emir Kusturica and The No Smoking Orchestra
TTITLE19=Larzac 2003 - Jose Bove
TTITLE20=Traitors of Africa - Femi Kuti
TTITLE21=Leili Yoro - Mamar Kassey
TTITLE22=Paris 2004 - Joao Pedro Stedile
TTITLE23=En la plaza del pueblo - Raul Barboza
TTITLE24=Africa musso - Djiguiya
TTITLE25=Hong-kong 2005 - Chant Corren de lutte paysanne
EXTD=
EXTT0=
EXTT1=
EXTT2=
EXTT3=
EXTT4=
EXTT5=
EXTT6=
EXTT7=
EXTT8=
EXTT9=
EXTT10=
EXTT11=
EXTT12=
EXTT13=
EXTT14=
EXTT15=
EXTT16=
EXTT17=
EXTT18=
EXTT19=
EXTT20=
EXTT21=
EXTT22=
EXTT23=
EXTT24=
EXTT25=
PLAYORDER=
